# xmcd
#
# Track frame offsets:
#	150
#	14099
#	24425
#
# Disc length: 496 seconds
#
# Revision: 0
# Processed by: cddbd v1.5.2PL0 Copyright (c) Steve Scherf et al.
# Submitted via: audiograbber 1.83.01
#
DISCID=1c01ee03
DTITLE=Kathrin and Peter - Urlaub am Meer
DYEAR=1900
DGENRE=Volksmusik
TTITLE0=Urlaub am Meer
TTITLE1=Musikanten unterwegs
TTITLE2=Wullt ihr Gott sei dank, schun gihn
EXTD=
EXTT0=
EXTT1=
EXTT2=
PLAYORDER=
